<?xml version="1.0" standalone="no"?><!DOCTYPE svg PUBLIC "-//W3C//DTD SVG 1.1//EN" "http://www.w3.org/Graphics/SVG/1.1/DTD/svg11.dtd"><svg t="1590547010426" class="icon" viewBox="0 0 1026 1024" version="1.1" xmlns="http://www.w3.org/2000/svg" p-id="3614" xmlns:xlink="http://www.w3.org/1999/xlink" width="200.390625" height="200"><defs><style type="text/css"></style></defs><path d="M744.413867 68.266667c20.957867 24.2688 54.3744 60.3136 107.7248 117.8624 31.266133 33.723733 62.532267 67.208533 85.981866 92.2624 7.816533 8.328533 14.609067 15.598933 20.5824 21.879466V921.6c0 18.807467-15.086933 34.133333-33.621333 34.133333H313.6512a33.928533 33.928533 0 0 1-33.621333-34.133333V102.4c0-18.807467 15.086933-34.133333 33.621333-34.133333h430.762667m33.245866-68.266667H313.6512a102.161067 102.161067 0 0 0-101.888 102.4v819.2c0 56.558933 45.636267 102.4 101.888 102.4h611.396267a102.126933 102.126933 0 0 0 101.888-102.4V273.271467C1026.901333 273.271467 769.8432 0 777.659733 0z" fill="#999999" p-id="3615"></path><path d="M746.496 341.333333H68.266667a68.266667 68.266667 0 0 0-68.266667 68.266667v204.8a68.266667 68.266667 0 0 0 68.266667 68.266667h678.229333a68.266667 68.266667 0 0 0 68.266667-68.266667v-204.8a68.266667 68.266667 0 0 0-68.266667-68.266667z" fill="#999999" p-id="3616"></path><path d="M187.050667 514.56H153.6v-34.850133h33.450667v-23.210667c0-11.3664 0.785067-21.674667 2.3552-30.890667 1.570133-9.216 4.573867-17.134933 8.977066-23.722666s10.5472-11.639467 18.432-15.189334c7.8848-3.549867 18.1248-5.290667 30.754134-5.290666 9.250133 0 17.783467 0.785067 25.7024 2.389333l-2.696534 34.816a128.273067 128.273067 0 0 0-8.465066-1.706667 52.155733 52.155733 0 0 0-8.465067-0.682666 28.672 28.672 0 0 0-13.5168 2.730666 20.923733 20.923733 0 0 0-7.953067 7.338667 26.8288 26.8288 0 0 0-3.720533 10.752c-0.580267 4.096-0.853333 8.430933-0.853333 12.970667v29.696h37.546666v34.850133h-37.546666v128.989867H187.050667v-128.989867z m99.089066-90.487467c0-6.587733 2.423467-12.322133 7.2704-17.237333 4.846933-4.881067 10.990933-7.338667 18.432-7.338667s13.687467 2.321067 18.773334 6.997334 7.611733 10.513067 7.611733 17.578666c0 7.0656-2.56 12.9024-7.611733 17.578667s-11.332267 6.997333-18.773334 6.997333-13.585067-2.4576-18.432-7.338666a23.6544 23.6544 0 0 1-7.2704-17.237334z m5.4272 55.671467H332.117333v163.84H291.566933v-163.84zM407.517867 385.501867h40.584533v258.048h-40.584533v-258.048zM561.083733 575.965867c1.3312 12.288 6.075733 21.879467 14.199467 28.706133 8.0896 6.792533 17.885867 10.24 29.3888 10.24 10.171733 0 18.670933-2.116267 25.531733-6.3488 6.894933-4.1984 12.9024-9.489067 18.090667-15.872l29.115733 22.186667c-9.489067 11.844267-20.0704 20.2752-31.812266 25.258666s-23.995733 7.509333-36.864 7.509334c-12.151467 0-23.6544-2.082133-34.5088-6.144a82.397867 82.397867 0 0 1-28.0576-17.442134 82.602667 82.602667 0 0 1-18.7392-27.136 87.4496 87.4496 0 0 1-6.929067-35.328c0-12.970667 2.321067-24.746667 6.929067-35.293866 4.642133-10.615467 10.888533-19.626667 18.7392-27.136 7.8848-7.509333 17.271467-13.312 28.0576-17.408 10.820267-4.096 22.3232-6.144 34.5088-6.144 11.264 0 21.6064 2.013867 30.9248 5.973333 9.352533 3.9936 17.373867 9.728 24.029866 17.237333 6.621867 7.509333 11.844267 16.7936 15.530667 27.818667 3.720533 11.025067 5.597867 23.688533 5.597867 38.058667v11.229866h-123.733334z m83.1488-30.685867c-0.2048-12.0832-3.925333-21.572267-11.127466-28.501333-7.236267-6.9632-17.271467-10.410667-30.1056-10.410667-12.1856 0-21.845333 3.549867-28.945067 10.581333-7.099733 7.0656-11.434667 16.4864-13.0048 28.330667h83.182933z" fill="#FFFFFF" p-id="3617"></path><path d="M745.233067 49.800533v170.666667a68.266667 68.266667 0 0 0 68.266666 68.266667h170.666667l-238.933333-238.933334z" fill="#999999" p-id="3618"></path><path d="M745.233067 49.800533v136.533334h34.133333V132.232533l63.419733 63.419734 24.132267-24.132267-121.685333-121.719467z m38.2976 187.016534l-29.934934 16.384c1.399467 2.56 2.9696 5.0176 4.676267 7.3728l0.238933 0.3072v0.034133l0.068267 0.1024 0.170667 0.2048 0.068266 0.1024 0.170667 0.2048v0.034133l0.068267 0.1024 0.034133 0.068267 0.1024 0.170667 0.034133 0.034133 0.068267 0.1024 0.034133 0.034133 0.2048 0.273067 0.034134 0.068267 0.068266 0.068266 0.1024 0.1024 0.068267 0.068267 0.068267 0.068267 0.068266 0.068266 0.068267 0.1024 0.068267 0.068267 0.068266 0.1024 0.034134 0.068267 0.068266 0.1024 0.034134 0.068266 0.1024 0.1024 0.034133 0.034134 0.1024 0.1024 0.034133 0.034133 0.1024 0.136533 0.034134 0.034134 0.068266 0.1024 0.034134 0.034133 0.1024 0.136533 0.034133 0.034134 0.1024 0.1024 0.034133 0.034133 0.1024 0.136533 0.034134 0.034134 0.1024 0.136533 0.034133 0.034133 0.1024 0.136534 0.1024 0.136533 0.034133 0.034133 0.238934 0.273067 0.034133 0.034133 0.238933 0.273067v0.034133l0.273067 0.3072 0.136533 0.136534 0.136534 0.136533 0.136533 0.136533 0.136533 0.136534 0.136534 0.136533c8.021333 8.772267 18.295467 15.428267 29.9008 19.080533l0.4096 0.136534 1.809066 0.546133 0.4096 0.1024 0.4096 0.1024 0.4096 0.1024 0.2048 0.034133 0.4096 0.1024 0.4096 0.1024 0.4096 0.1024 0.4096 0.1024 0.4096 0.1024 0.170667 0.034134 0.2048 0.034133 0.2048 0.034133 0.2048 0.034134 0.170667 0.034133h0.034133a1.774933 1.774933 0 0 0 0.375467 0.068267h0.034133l0.375467 0.068266h0.034133l0.375467 0.068267h0.034133l0.170667 0.034133 0.2048 0.034134h0.034133l0.170667 0.034133h0.034133l0.2048 0.034133h0.034133l0.170667 0.034134h0.034133l0.2048 0.034133 0.2048 0.034133h0.034134l0.4096 0.068267h0.034133l0.4096 0.068267h0.034133l0.2048 0.034133 0.2048 0.034133h0.034134l0.170666 0.034134 0.2048 0.034133h0.034134l0.170666 0.034133h0.034134l0.2048 0.034134h0.034133l0.170667 0.034133h0.034133l0.2048 0.034133 0.170667 0.034134h0.034133l0.375467 0.034133h0.034133l0.375467 0.034133h0.034133l0.170667 0.034134h0.034133l0.2048 0.034133h0.238933l0.2048 0.034133h0.238934l0.2048 0.034134h69.495466v-34.133334h-63.419733a32.904533 32.904533 0 0 1-29.832533-17.373866z m131.652266-17.066667l-24.132266 24.132267 44.8512 44.8512h48.264533l-68.983467-68.983467z" fill="#999999" p-id="3619"></path></svg>