<?xml version="1.0" standalone="no"?><!DOCTYPE svg PUBLIC "-//W3C//DTD SVG 1.1//EN" "http://www.w3.org/Graphics/SVG/1.1/DTD/svg11.dtd"><svg class="icon" width="200px" height="200.00px" viewBox="0 0 1024 1024" version="1.1" xmlns="http://www.w3.org/2000/svg"><path fill="red" d="M328.02544 438.848l292.576 0 0-109.728q0-60.576-42.848-103.424t-103.424-42.848-103.424 42.848-42.848 103.424l0 109.728zM803.44944 493.728l0 329.152q0 22.848-16 38.848t-38.848 16l-548.576 0q-22.848 0-38.848-16t-16-38.848l0-329.152q0-22.848 16-38.848t38.848-16l18.272 0 0-109.728q0-105.152 75.424-180.576t180.576-75.424 180.576 75.424 75.424 180.576l0 109.728 18.272 0q22.848 0 38.848 16t16 38.848z" /></svg>