<?xml version="1.0" standalone="no"?><!DOCTYPE svg PUBLIC "-//W3C//DTD SVG 1.1//EN" "http://www.w3.org/Graphics/SVG/1.1/DTD/svg11.dtd"><svg t="1590471659500" class="icon" viewBox="0 0 1024 1024" version="1.1" xmlns="http://www.w3.org/2000/svg" p-id="3007" xmlns:xlink="http://www.w3.org/1999/xlink" width="200" height="200"><defs><style type="text/css"></style></defs><path d="M1024 1024H0V0h1024zM47.806 976.194h928.388V47.806H47.806z" fill="#E88A36" p-id="3008"></path><path d="M983.365 1021.132l-381.968-389.14-162.54 105.651-174.013-225.165-222.297 172.1-29.64-37.766 260.542-201.74 175.925 228.512L608.09 570.8l409.217 416.867-33.942 33.464zM773.498 424.037a119.514 119.514 0 1 1 119.514-119.514 119.514 119.514 0 0 1-119.514 119.514z m0-191.223a71.709 71.709 0 1 0 71.708 71.709 71.709 71.709 0 0 0-71.708-71.709z" fill="#E88A36" p-id="3009"></path></svg>