<?xml version="1.0" standalone="no"?><!DOCTYPE svg PUBLIC "-//W3C//DTD SVG 1.1//EN" "http://www.w3.org/Graphics/SVG/1.1/DTD/svg11.dtd"><svg t="1590472885508" class="icon" viewBox="0 0 1024 1024" version="1.1" xmlns="http://www.w3.org/2000/svg" p-id="3853" xmlns:xlink="http://www.w3.org/1999/xlink" width="200" height="200"><defs><style type="text/css"></style></defs><path d="M725.333 0H196.267c-84.48 0-153.6 69.12-153.6 153.6v716.8c0 84.48 69.12 153.6 153.6 153.6h631.466c84.48 0 153.6-69.12 153.6-153.6V256l-256-256zM896 870.4c0 37.547-30.72 68.267-68.267 68.267H196.267c-37.547 0-68.267-30.72-68.267-68.267V153.6c0-37.547 30.72-68.267 68.267-68.267h409.6V307.2c0 37.547 30.72 68.267 68.266 68.267H896V870.4zM708.267 290.133c-9.387 0-17.067-7.68-17.067-17.066V85.333l204.8 204.8H708.267z" fill="#4990EE" p-id="3854"></path><path d="M588.8 716.8H298.667c-23.894 0-42.667 18.773-42.667 42.667s18.773 42.666 42.667 42.666H588.8c23.893 0 42.667-18.773 42.667-42.666S612.693 716.8 588.8 716.8zM256 571.733c0 23.894 18.773 42.667 42.667 42.667h426.666c23.894 0 42.667-18.773 42.667-42.667s-18.773-42.666-42.667-42.666H298.667c-23.894 0-42.667 18.773-42.667 42.666z" fill="#4990EE" p-id="3855"></path></svg>