<?xml version="1.0" standalone="no"?><!DOCTYPE svg PUBLIC "-//W3C//DTD SVG 1.1//EN" "http://www.w3.org/Graphics/SVG/1.1/DTD/svg11.dtd"><svg class="icon" width="200px" height="200.00px" viewBox="0 0 1024 1024" version="1.1" xmlns="http://www.w3.org/2000/svg"><path fill="#333333" d="M987.428571 329.142857l0 146.285714q0 14.848-10.825143 25.746286t-25.746286 10.825143l-36.571429 0q-14.848 0-25.746286-10.825143t-10.825143-25.746286l0-146.285714q0-60.562286-42.861714-103.424t-103.424-42.861714-103.424 42.861714-42.861714 103.424l0 109.714286 54.857143 0q22.820571 0 38.838857 16.018286t16.018286 38.838857l0 329.142857q0 22.820571-16.018286 38.838857t-38.838857 16.018286l-548.571429 0q-22.820571 0-38.838857-16.018286t-16.018286-38.838857l0-329.142857q0-22.820571 16.018286-38.838857t38.838857-16.018286l384 0 0-109.714286q0-105.691429 75.117714-180.882286t180.882286-75.117714 180.882286 75.117714 75.117714 180.882286z" /></svg>